<svg xmlns="http://www.w3.org/2000/svg" viewBox="0 0 855.94 1224.67"><defs><style>.cls-1,.cls-3{fill:#fff;}.cls-1{stroke:#000;stroke-miterlimit:10;stroke-width:6px;}.cls-2{fill:#c1272d;}.cls-4{font-size:110px;font-family:Brother-1816-Thin, "Brother 1816";font-weight:200;}.cls-5{letter-spacing:0.03em;}.cls-6{letter-spacing:0.01em;}</style></defs><title>Asset 1</title><g id="Layer_2" data-name="Layer 2"><g id="Layer_1-2" data-name="Layer 1"><rect class="cls-1" x="35.87" y="18.6" width="528" height="743" rx="37.92" transform="translate(-18.74 15.15) rotate(-2.81)"/><g id="lfJU0x"><path class="cls-2" d="M409.27,139.24l-64-1.42c1.59,7.09-1.54,14.48,8.23,17.87-2.26,1.3-3.65,1.75-4.53,2.69-1.35,1.46-3.39,3.28-3.34,4.89.29,10.27-5.22,18.43-9.79,26.7-4.26,7.69-3.57,11.54,4.89,14.64a16.24,16.24,0,0,0,1.94.5c15.76,3.8,22.94,15,19.23,30.68-3.44,14.54-7.36,28.8-14.15,42.44a157.58,157.58,0,0,0-16.39,56.07c-.89,9.58-.36,18.65,4.31,25.81,7.67,11.73,6.88,24.18,7.3,36.82.2,6.1.64,12.21.33,18.29-.28,5.26-1.8,10.46-2.15,15.73-.4,6,.07,12.06-.17,18.07-.21,5.25-1,10.47-1.3,15.72-.4,7.8-.95,15.64-.61,23.42.18,4,2.71,7.86,3.19,11.9.85,7.26,1.63,14.64,1.27,21.91-.93,18.6-2.5,37.16-3.81,55.74a5.49,5.49,0,0,0-.06,1c1.45,15.51,2.21,31.12,4.62,46.47a52.32,52.32,0,0,1-2.09,26.42c-.45,1.26-2.52,2.58-4,2.72-5.3.55-10.65.48-16,.92-4,.33-5.23-2.17-6.07-5.2a50.82,50.82,0,0,1-1.61-7.17c-.64-5-3.66-5.5-7.9-4.87-6.09.89-12.23,1.53-18.37,1.93-6.59.43-12.82-.84-18.87-6.29,1-4.52,2.6-9.92,3.37-15.42.63-4.55,1.12-9.39.22-13.81-1.55-7.64-4.42-15-6.38-22.57-3-11.42-5.33-23-8.55-34.35-3.13-11-2.58-22.07-1.36-33.16.43-3.92,1.81-7.73,2.69-11.61,1.45-6.38-.54-8.56-6.91-8.62-14-.13-14.22.17-14.76-13.51-1.07-26.77-2-53.56-2.95-80.34-.28-7.63-1.12-15.28-.81-22.89.23-5.91,1.66-11.8,2.89-17.64,1.42-6.8,3.61-13.46,4.71-20.31.88-5.51.11-11.29,1-16.81,2.57-16.1,5.59-32.13,8.46-48.19.76-4.26,2-8.47,2.29-12.75a38.65,38.65,0,0,0-.78-12.2c-1.28-4.95-5.66-5.65-10.12-5-15.84,2.3-31.19-1.09-46.47-4.32-13.47-2.85-14.8-5-13.84-18.88,1-14.66,3.48-29,9.23-42.71,2.91-7,3.6-14.85,6-22.08a219.56,219.56,0,0,1,9-22c.7-1.51,3-2.58,4.82-3.2,11.06-3.84,22.37-6.06,33.61-1.23,7.36,3.17,14.94,2.7,22.52,2.92,10.49.31,21,.46,31.48.37,2.51,0,5.07-1.06,7.48-1.95,5-1.83,9.77-4.35,14.88-5.65a11.78,11.78,0,0,1,8.31,1.43,46.72,46.72,0,0,0,26.73,7.61c18.48-.28,37,.32,55.46.47,9.84.07,23.41,10,26.31,19.45a12.84,12.84,0,0,1-5.27,14.87c-5.58,3.66-12.65,3.6-17.22-.43-7.14-6.29-7.45-14.82-7.24-23.42A56.67,56.67,0,0,1,409.27,139.24Zm-94.5,474c-.23-4.84-.09-8.32-.64-11.7A18.68,18.68,0,0,1,317.38,587c2.49-3.61,5.32-8.49,4.83-12.41-1.73-13.8-4.94-27.42-7.36-41.14-1.24-7-2.79-14.1-2.79-21.15,0-9-1.8-17.48-7.31-24.27-2.29-2.82-7.75-3.34-11.92-4.16-1-.19-2.87,2.45-3.78,4.1-.67,1.2-.49,2.91-.61,4.39-.31,3.63-.24,7.33-.93,10.88-2,10.23-4.74,20.28-2.2,30.92,1.09,4.62,1.16,9.54,1.23,14.33.09,6.46-.27,12.93-.42,19.39-.06,2.66.26,5.37-.17,8-1.72,10.4,2.05,19.3,7.35,27.77.69,1.12,2.27,1.81,3.57,2.39,2.36,1,4.83,1.84,7.23,2.81C307.29,610.05,310.45,611.4,314.77,613.2Zm-14.49-475a13.48,13.48,0,0,0-2.6-.46c-15.61,1.06-31.23,2.07-46.82,3.4-1.46.12-3.24,2-4,3.51-5,9.32-.84,16.42,5.71,23.07,9.11,9.24,18,18.73,27,28a39,39,0,0,0,7.63,6.33,6.33,6.33,0,0,0,5.47.16c9.9-6.08,11.61-18.8,4-27.95-3.17-3.82-3-8.86-1.56-13.57C297.38,153.42,298.59,145.81,300.28,138.21Zm-68.39,74.37,0,.26a66.41,66.41,0,0,0,7.36-1.2c3.52-.95,7-2.18,10.41-3.41,4.95-1.76,5.87-4,3.39-8.72-7.81-14.83-15.71-29.61-23.53-44.43-1.51-2.85-3.8-3.62-6-1.6-3.12,2.81-6.61,5.77-8.39,9.42-7.06,14.47-9,30.06-8.63,46,.09,4.22,2.67,4.81,6,4.62C219,213.19,225.43,212.9,231.89,212.58Z"/></g><polygon points="537.42 687.89 529.77 689.72 523.3 694.18 518.87 700.68 517.09 708.34 518.2 716.13 522.05 722.99 528.11 727.99 535.58 730.47 543.43 730.09 550.62 726.89 556.16 721.31 559.32 714.11 559.66 706.25 557.14 698.8 552.1 692.77 545.22 688.96 537.42 687.89"/><polygon class="cls-2" points="60.23 49.93 52.58 51.75 46.1 56.22 41.67 62.72 39.9 70.38 41 78.16 44.85 85.02 50.91 90.03 58.38 92.51 66.23 92.12 73.42 88.93 78.96 83.35 82.12 76.15 82.46 68.29 79.94 60.84 74.9 54.8 68.02 51 60.23 49.93"/><rect class="cls-1" x="270.79" y="27.09" width="528" height="743" rx="37.92" transform="translate(50.12 -59.63) rotate(6.7)"/><g id="lfJU0x-2" data-name="lfJU0x"><path d="M684.11,169.23l-62.93-12c.39,7.25-3.91,14,5.17,19-2.45.91-3.9,1.12-4.91,1.91-1.58,1.21-3.89,2.67-4.11,4.27-1.41,10.17-8.19,17.31-14.06,24.71-5.47,6.88-5.43,10.8,2.41,15.25a16.51,16.51,0,0,0,1.82.81c14.92,6.35,20.15,18.61,13.91,33.43-5.8,13.78-12,27.2-21,39.52A157.61,157.61,0,0,0,575,348.74c-2.46,9.3-3.44,18.34,0,26.17,5.62,12.83,2.79,25,1.11,37.52-.8,6-1.38,12.15-2.69,18.09-1.14,5.15-3.5,10-4.72,15.16-1.38,5.86-1.92,11.9-3.15,17.8-1.07,5.14-2.75,10.15-3.88,15.29-1.67,7.63-3.51,15.26-4.46,23-.49,4,1.37,8.2,1.17,12.27-.35,7.3-.8,14.7-2.36,21.81-4,18.19-8.6,36.24-13,54.35a5.44,5.44,0,0,0-.22,1c-1.13,15.53-3,31.06-3.11,46.6-.1,9.36-2,17.75-6.43,25.71-.65,1.16-2.91,2.12-4.35,2-5.32-.33-10.59-1.3-15.9-1.74-4-.33-4.8-3-5.13-6.13a51.39,51.39,0,0,1-.41-7.33c.2-5.07-2.7-6-7-6.11-6.15-.12-12.31-.51-18.43-1.12-6.57-.67-12.51-3-17.58-9.33,1.76-4.29,4.21-9.35,5.88-14.65,1.37-4.38,2.65-9.08,2.49-13.59-.27-7.79-1.88-15.52-2.57-23.31-1.05-11.75-1.45-23.57-2.76-35.29-1.26-11.39,1.1-22.19,4.14-32.93,1.07-3.79,3.06-7.33,4.57-11,2.48-6,.88-8.53-5.39-9.64-13.77-2.44-14.06-2.18-12.34-15.75,3.37-26.59,6.92-53.16,10.36-79.74,1-7.57,1.42-15.25,3-22.7,1.21-5.79,3.59-11.37,5.76-16.92,2.53-6.48,5.78-12.69,8-19.26,1.78-5.29,2-11.11,3.76-16.41,5.19-15.46,10.81-30.77,16.29-46.14,1.45-4.07,3.36-8,4.37-12.19a38.87,38.87,0,0,0,1.25-12.16c-.45-5.09-4.66-6.51-9.17-6.6-16-.35-30.58-6.23-45.11-11.94-12.81-5-13.77-7.42-10.54-20.9,3.43-14.3,8.21-28,16.15-40.6,4-6.4,6-14.06,9.59-20.78a217.62,217.62,0,0,1,12.56-20.18c.93-1.37,3.4-2,5.28-2.36,11.53-2,23.06-2.29,33.34,4.33,6.74,4.35,14.3,5.14,21.74,6.61,10.29,2,20.62,3.91,31,5.55,2.47.39,5.17-.2,7.69-.68,5.22-1,10.36-2.68,15.61-3.12a11.8,11.8,0,0,1,8,2.78,46.81,46.81,0,0,0,25.11,11.92c18.27,2.77,36.41,6.42,54.62,9.62,9.69,1.7,21.43,13.74,22.74,23.53a12.86,12.86,0,0,1-7.66,13.8c-6.1,2.68-13.07,1.45-16.91-3.28-6-7.38-4.9-15.84-3.27-24.29A55.38,55.38,0,0,1,684.11,169.23ZM512.66,621.08c.56-4.81,1.28-8.22,1.29-11.64a18.68,18.68,0,0,1,5.61-13.8c3.06-3.16,6.65-7.5,6.81-11.45.57-13.9-.34-27.86-.47-41.79-.06-7.12-.42-14.36.75-21.32,1.49-8.9,1.11-17.54-3.2-25.14-1.8-3.16-7.1-4.58-11.08-6.07-.94-.36-3.23,1.94-4.4,3.41-.86,1.08-1,2.79-1.33,4.24-.9,3.52-1.45,7.18-2.71,10.57-3.64,9.76-8,19.23-7.28,30.13.32,4.74-.42,9.6-1.15,14.34-1,6.39-2.4,12.71-3.61,19.06-.5,2.61-.63,5.33-1.48,7.82-3.42,10-1.17,19.37,2.66,28.6.5,1.22,1.94,2.16,3.13,3,2.15,1.42,4.46,2.61,6.66,4C505.8,616.74,508.69,618.59,512.66,621.08Zm64.12-470.86a14.41,14.41,0,0,0-2.49-.89c-15.57-1.52-31.14-3.1-46.73-4.37-1.47-.12-3.53,1.44-4.57,2.79-6.47,8.37-3.54,16.06,1.83,23.7,7.45,10.61,14.61,21.44,22,32.08a39.26,39.26,0,0,0,6.49,7.51,6.33,6.33,0,0,0,5.37,1.06c10.76-4.36,14.55-16.63,8.58-26.9-2.5-4.29-1.52-9.24.7-13.64C571.41,164.74,573.86,157.43,576.78,150.22Zm-79.73,62.06,0,.25a68.8,68.8,0,0,0,7.46,0c3.63-.36,7.23-1,10.82-1.64,5.18-.93,6.46-3,4.79-8.05-5.26-15.91-10.61-31.79-15.88-47.7-1-3.06-3.15-4.2-5.7-2.58-3.54,2.26-7.47,4.6-9.83,7.91-9.34,13.11-13.82,28.16-16.11,44-.6,4.17,1.84,5.18,5.2,5.56C484.21,210.75,490.63,211.53,497.05,212.28Z"/></g><polygon points="719.92 731.51 712.08 732.04 704.96 735.38 699.52 741.06 696.5 748.32 696.3 756.18 698.97 763.58 704.12 769.52 711.07 773.2 718.88 774.11 726.5 772.15 732.89 767.56 737.19 760.98 738.82 753.29 737.57 745.52 733.59 738.74 727.43 733.85 719.92 731.51"/><polygon points="354.6 23.52 346.75 24.05 339.63 27.39 334.19 33.07 331.17 40.33 330.98 48.19 333.64 55.59 338.79 61.53 345.74 65.21 353.55 66.12 361.17 64.16 367.56 59.57 371.86 52.99 373.5 45.3 372.24 37.53 368.26 30.75 362.11 25.86 354.6 23.52"/><path d="M238.77,1077.18c-23.8,11.56-56.1,18.36-86.36,18.36-80.92,0-134-56.44-134-127.5,0-70,53.72-127.5,130.56-127.5,35.36,0,61.2,7.14,80.24,16v64.6c-15.64-6.8-39.44-15.64-73.1-15.64-43.52,0-66.3,30.26-66.3,62.56,0,33,21.76,63.24,62.56,63.24a163.3,163.3,0,0,0,18.7-1V973.48h67.66Z"/><path d="M374.76,840.54c77.18,0,130.9,57.46,130.9,127.5,0,71.06-53.72,127.5-130.9,127.5-76.84,0-130.56-56.44-130.56-127.5C244.2,898,297.92,840.54,374.76,840.54Zm0,190.06c36,0,59.16-29.58,59.16-62.56,0-32.3-23.12-62.56-59.16-62.56-35.7,0-59.16,30.26-59.16,62.56C315.6,1001,339.06,1030.6,374.76,1030.6Z"/><polygon class="cls-3" points="374.93 895.24 348.41 900.2 325.46 914.4 309.2 935.94 301.82 961.89 304.31 988.76 316.34 1012.92 336.28 1031.1 361.44 1040.84 388.43 1040.84 413.59 1031.1 433.53 1012.92 445.56 988.76 448.05 961.89 440.66 935.94 424.4 914.4 401.46 900.2 374.93 895.24"/><path d="M518.24,1090.44V845.64H589.3v185h83.63v59.84Z"/><path d="M682.11,845.64H837.49v59.84H753.17v36.38h71.06V1000H753.17v90.44H682.11Z"/><text class="cls-4" transform="translate(53.43 1192.32)">the <tspan class="cls-5" x="201.07" y="0">c</tspan><tspan x="262.78" y="0">ard </tspan><tspan class="cls-6" x="460.89" y="0">g</tspan><tspan x="520.84" y="0">a</tspan><tspan class="cls-6" x="579.69" y="0">m</tspan><tspan x="685.18" y="0">e </tspan></text></g></g></svg>